<svg version="1.1" id="Layer_1" xmlns="http://www.w3.org/2000/svg" xmlns:xlink="http://www.w3.org/1999/xlink" x="0px" y="0px"
	 width="100%" viewBox="0 0 1070 1070" enable-background="new 0 0 1070 1070" xml:space="preserve">
<path fill="#000000" opacity="1.000000" stroke="none" 
	d="
M496.000000,1071.000000 
	C330.685852,1071.000000 165.871735,1071.000000 1.057600,1071.000000 
	C1.038409,1070.852539 1.002385,1070.705078 1.002384,1070.557617 
	C0.999977,714.099121 1.000000,357.640686 1.000000,1.091107 
	C357.564362,1.091107 714.128723,1.091107 1070.846558,1.091107 
	C1070.846558,357.666626 1070.846558,714.333313 1070.846558,1071.000000 
	C879.454346,1071.000000 687.977173,1071.000000 496.000000,1071.000000 
M637.276978,699.167847 
	C649.023682,700.777649 660.737854,703.374390 672.524841,703.763489 
	C689.735962,704.331604 706.651550,701.223938 723.266296,696.434204 
	C755.456848,687.154297 782.405090,670.079468 804.199646,644.475037 
	C821.710388,623.903259 833.545166,600.615723 839.123779,574.371399 
	C841.784424,561.854431 842.980591,548.944946 843.790771,536.146790 
	C844.265381,528.648926 842.812561,521.005188 841.984863,513.453613 
	C840.173218,496.924072 835.585449,481.085541 828.506348,466.117462 
	C818.375183,444.695709 805.100647,425.559601 786.739868,410.093079 
	C771.033997,396.863098 754.050476,386.005890 734.761108,378.881592 
	C709.777100,369.653992 684.041565,367.096832 657.617004,369.925995 
	C638.388000,371.984802 620.019470,377.060944 602.819458,385.728363 
	C575.714600,399.387054 553.680115,418.978333 536.186401,445.384827 
	C503.438538,397.697083 458.850128,370.685059 400.846222,369.163544 
	C342.699127,367.638275 295.245789,390.477661 260.625153,437.162506 
	C213.401749,500.841827 218.264908,590.468445 271.859955,649.163513 
	C302.742310,682.984619 342.127838,702.015076 387.655365,703.481201 
	C450.117249,705.492676 500.070526,679.572754 536.011475,627.115479 
	C538.076599,629.900208 539.373047,631.802124 540.823914,633.577942 
	C546.666382,640.728760 551.685547,648.869629 558.621216,654.739685 
	C570.791016,665.039673 583.444580,675.162292 597.214539,683.059143 
	C609.355042,690.021484 623.296448,693.843689 637.276978,699.167847 
z"/>
<path fill="#283090" opacity="1.000000" stroke="none" 
	d="
M636.859802,699.110168 
	C623.296448,693.843689 609.355042,690.021484 597.214539,683.059143 
	C583.444580,675.162292 570.791016,665.039673 558.621216,654.739685 
	C551.685547,648.869629 546.666382,640.728760 540.823914,633.577942 
	C539.373047,631.802124 538.076599,629.900208 536.011475,627.115479 
	C500.070526,679.572754 450.117249,705.492676 387.655365,703.481201 
	C342.127838,702.015076 302.742310,682.984619 271.859955,649.163513 
	C218.264908,590.468445 213.401749,500.841827 260.625153,437.162506 
	C295.245789,390.477661 342.699127,367.638275 400.846222,369.163544 
	C458.850128,370.685059 503.438538,397.697083 536.186401,445.384827 
	C553.680115,418.978333 575.714600,399.387054 602.819458,385.728363 
	C620.019470,377.060944 638.388000,371.984802 657.617004,369.925995 
	C684.041565,367.096832 709.777100,369.653992 734.761108,378.881592 
	C754.050476,386.005890 771.033997,396.863098 786.739868,410.093079 
	C805.100647,425.559601 818.375183,444.695709 828.506348,466.117462 
	C835.585449,481.085541 840.173218,496.924072 841.984863,513.453613 
	C842.812561,521.005188 844.265381,528.648926 843.790771,536.146790 
	C842.980591,548.944946 841.784424,561.854431 839.123779,574.371399 
	C833.545166,600.615723 821.710388,623.903259 804.199646,644.475037 
	C782.405090,670.079468 755.456848,687.154297 723.266296,696.434204 
	C706.651550,701.223938 689.735962,704.331604 672.524841,703.763489 
	C660.737854,703.374390 649.023682,700.777649 636.859802,699.110168 
M619.012268,448.481720 
	C613.518005,452.977509 607.730347,457.166809 602.617432,462.061005 
	C598.100037,466.385071 594.468384,471.621124 590.157532,476.182190 
	C588.835510,477.580933 586.566589,478.866486 584.724548,478.875732 
	C552.559509,479.037903 520.393005,479.049835 488.228119,478.869202 
	C486.031158,478.856873 483.332153,477.581329 481.740753,476.008759 
	C474.703766,469.054993 468.359680,461.370361 461.078064,454.699921 
	C444.590302,439.595978 424.435364,432.664612 402.533630,431.161774 
	C387.426422,430.125183 372.577698,432.845917 358.294708,438.051849 
	C343.795166,443.336700 330.871338,451.261047 320.200775,462.424133 
	C309.136230,473.999390 300.771881,487.321960 295.676361,502.651550 
	C290.093323,519.447937 288.299042,536.510986 291.522949,553.950562 
	C295.009857,572.812683 302.838226,589.533752 315.430206,604.249023 
	C326.539124,617.231140 339.806915,626.898560 355.504578,633.158081 
	C372.335175,639.869324 389.760559,642.232422 407.977478,640.205688 
	C419.143158,638.963562 429.940521,636.570251 439.865051,631.822876 
	C457.702362,623.290405 472.146301,610.444580 483.046814,593.802246 
	C485.295959,590.368347 488.191681,588.861023 492.571838,588.895813 
	C519.069580,589.106567 545.569824,589.004028 572.069214,588.994812 
	C573.732605,588.994263 575.465027,589.180664 577.046692,588.794373 
	C582.192261,587.537781 585.612061,589.519287 588.916443,593.488159 
	C596.001038,601.997559 602.565735,611.376892 611.131409,618.132996 
	C635.223999,637.135742 663.196594,644.875549 693.531433,639.716003 
	C730.416382,633.442322 757.200806,612.892639 772.737122,578.519714 
	C782.294373,557.375122 784.447693,535.535889 779.094971,512.751282 
	C774.463684,493.037781 764.934326,476.144043 751.026489,461.882690 
	C741.218323,451.825317 729.525513,444.201294 716.202881,438.919556 
	C697.889771,431.659454 679.126831,429.448364 659.845886,432.296478 
	C645.327942,434.441010 631.838989,439.825775 619.012268,448.481720 
z"/>
<path fill="#000000" opacity="1.000000" stroke="none" 
	d="
M619.278320,448.232300 
	C631.838989,439.825775 645.327942,434.441010 659.845886,432.296478 
	C679.126831,429.448364 697.889771,431.659454 716.202881,438.919556 
	C729.525513,444.201294 741.218323,451.825317 751.026489,461.882690 
	C764.934326,476.144043 774.463684,493.037781 779.094971,512.751282 
	C784.447693,535.535889 782.294373,557.375122 772.737122,578.519714 
	C757.200806,612.892639 730.416382,633.442322 693.531433,639.716003 
	C663.196594,644.875549 635.223999,637.135742 611.131409,618.132996 
	C602.565735,611.376892 596.001038,601.997559 588.916443,593.488159 
	C585.612061,589.519287 582.192261,587.537781 577.046692,588.794373 
	C575.465027,589.180664 573.732605,588.994263 572.069214,588.994812 
	C545.569824,589.004028 519.069580,589.106567 492.571838,588.895813 
	C488.191681,588.861023 485.295959,590.368347 483.046814,593.802246 
	C472.146301,610.444580 457.702362,623.290405 439.865051,631.822876 
	C429.940521,636.570251 419.143158,638.963562 407.977478,640.205688 
	C389.760559,642.232422 372.335175,639.869324 355.504578,633.158081 
	C339.806915,626.898560 326.539124,617.231140 315.430206,604.249023 
	C302.838226,589.533752 295.009857,572.812683 291.522949,553.950562 
	C288.299042,536.510986 290.093323,519.447937 295.676361,502.651550 
	C300.771881,487.321960 309.136230,473.999390 320.200775,462.424133 
	C330.871338,451.261047 343.795166,443.336700 358.294708,438.051849 
	C372.577698,432.845917 387.426422,430.125183 402.533630,431.161774 
	C424.435364,432.664612 444.590302,439.595978 461.078064,454.699921 
	C468.359680,461.370361 474.703766,469.054993 481.740753,476.008759 
	C483.332153,477.581329 486.031158,478.856873 488.228119,478.869202 
	C520.393005,479.049835 552.559509,479.037903 584.724548,478.875732 
	C586.566589,478.866486 588.835510,477.580933 590.157532,476.182190 
	C594.468384,471.621124 598.100037,466.385071 602.617432,462.061005 
	C607.730347,457.166809 613.518005,452.977509 619.278320,448.232300 
M447.500000,505.965118 
	C436.508484,505.987152 425.516418,506.080566 414.525787,505.993164 
	C410.593262,505.961914 408.871277,507.317719 408.932281,511.526978 
	C409.125275,524.848022 409.103394,538.174866 408.939911,551.496765 
	C408.891510,555.440613 409.913544,557.085144 414.258636,557.079407 
	C498.365112,556.967896 582.471741,556.973511 666.578308,557.063538 
	C670.686279,557.067932 672.140808,555.798584 672.072449,551.626587 
	C671.865051,538.972351 672.007141,526.312500 671.995972,513.654846 
	C671.989563,506.423218 671.572754,506.005127 664.344360,506.003510 
	C592.396240,505.987396 520.448120,505.977112 447.500000,505.965118 
M654.993652,453.489075 
	C668.362000,449.658630 681.792847,450.015076 695.222107,453.041687 
	C716.936035,457.935455 734.786438,469.092133 746.977905,487.753784 
	C758.048706,504.699982 763.698059,523.338928 761.134094,544.103882 
	C758.778259,563.182556 751.342712,579.675354 738.027344,593.350098 
	C728.113831,603.531250 716.373779,610.790955 702.661865,615.407837 
	C686.718445,620.776184 670.932556,620.811035 655.006958,616.820068 
	C640.114563,613.088074 627.255798,605.632568 616.635376,594.296265 
	C610.820618,588.089478 605.799683,587.461792 597.549683,591.128296 
	C598.434998,592.980347 598.939148,595.157532 600.256165,596.584656 
	C604.617432,601.310425 609.074951,605.984009 613.847229,610.287537 
	C635.820312,630.102173 662.407837,636.457031 690.660706,632.538879 
	C724.650879,627.825134 749.519714,608.575623 764.994080,577.812378 
	C772.520203,562.850220 774.553406,546.730957 774.081604,530.099670 
	C773.729065,517.668823 771.047729,505.881714 765.853943,494.687683 
	C756.756897,475.080933 742.822266,459.946167 723.893982,449.277893 
	C703.747925,437.923340 682.417786,434.578491 659.789368,438.592010 
	C642.177551,441.715729 626.449829,448.994690 612.985535,460.728943 
	C608.274048,464.835083 604.290039,469.829315 600.346741,474.718719 
	C599.557800,475.697021 599.803162,478.866608 600.714661,479.594543 
	C603.071228,481.476685 612.665527,479.561188 615.236450,477.257141 
	C618.442505,474.383942 621.476562,471.282867 624.895935,468.690582 
	C633.757935,461.972168 643.047729,455.988739 654.993652,453.489075 
M474.792908,591.703247 
	C469.891174,588.262085 463.243073,589.029358 458.769440,592.592224 
	C450.789062,598.947937 442.982880,605.834595 434.113129,610.689026 
	C420.456696,618.163208 405.602661,620.837463 389.678741,619.249146 
	C371.273651,617.413452 354.824646,611.408569 341.068085,599.365173 
	C319.951355,580.878296 310.009888,557.499390 311.876160,529.074768 
	C313.252991,508.104187 321.382660,490.175751 336.030609,475.810699 
	C352.617310,459.544250 372.720123,450.452209 396.695251,450.892944 
	C419.430634,451.310852 439.118439,458.659760 455.104767,474.862183 
	C459.324677,479.139160 463.784119,480.673706 469.351562,479.944733 
	C470.860779,479.747162 473.028870,479.298248 473.545044,478.280334 
	C474.064697,477.255585 473.297760,475.081757 472.420227,473.921509 
	C463.157166,461.674438 451.440094,452.212372 437.524841,445.968414 
	C414.687653,435.721069 391.034790,434.106293 366.972778,441.489197 
	C350.110138,446.663116 336.210327,456.340302 324.203888,469.190247 
	C310.182770,484.196442 301.402252,501.915680 299.314178,522.012939 
	C297.010559,544.184631 299.764832,565.849609 312.110535,585.563416 
	C325.784088,607.397461 344.310730,622.448975 369.159576,629.580017 
	C384.141357,633.879456 399.313477,634.727112 414.625214,631.955200 
	C426.761139,629.758301 438.130737,625.180298 448.473358,618.617493 
	C459.092926,611.878906 469.058838,604.163086 474.792908,591.703247 
M635.500000,582.002563 
	C645.662903,582.006042 655.826782,582.080139 665.987732,581.942444 
	C667.653931,581.919861 670.590820,581.212769 670.747559,580.399414 
	C671.479492,576.602539 671.707336,572.633057 671.354919,568.795166 
	C671.309326,568.298645 666.848511,568.120300 664.421936,567.958191 
	C662.599670,567.836426 660.759766,567.997925 658.927734,567.998047 
	C585.618469,568.002258 512.309143,568.002441 438.999847,568.003296 
	C430.669250,568.003418 422.338135,567.959106 414.008514,568.049133 
	C412.597839,568.064392 410.041321,568.500610 409.970551,569.012634 
	C409.457550,572.725464 409.108124,576.547913 409.545349,580.236206 
	C409.639709,581.031799 413.141205,581.926208 415.074341,581.928528 
	C488.216125,582.015320 561.358093,582.002930 635.500000,582.002563 
z"/>
<path fill="#283090" opacity="1.000000" stroke="none" 
	d="
M448.000000,505.965149 
	C520.448120,505.977112 592.396240,505.987396 664.344360,506.003510 
	C671.572754,506.005127 671.989563,506.423218 671.995972,513.654846 
	C672.007141,526.312500 671.865051,538.972351 672.072449,551.626587 
	C672.140808,555.798584 670.686279,557.067932 666.578308,557.063538 
	C582.471741,556.973511 498.365112,556.967896 414.258636,557.079407 
	C409.913544,557.085144 408.891510,555.440613 408.939911,551.496765 
	C409.103394,538.174866 409.125275,524.848022 408.932281,511.526978 
	C408.871277,507.317719 410.593262,505.961914 414.525787,505.993164 
	C425.516418,506.080566 436.508484,505.987152 448.000000,505.965149 
z"/>
<path fill="#283090" opacity="1.000000" stroke="none" 
	d="
M654.618530,453.659882 
	C643.047729,455.988739 633.757935,461.972168 624.895935,468.690582 
	C621.476562,471.282867 618.442505,474.383942 615.236450,477.257141 
	C612.665527,479.561188 603.071228,481.476685 600.714661,479.594543 
	C599.803162,478.866608 599.557800,475.697021 600.346741,474.718719 
	C604.290039,469.829315 608.274048,464.835083 612.985535,460.728943 
	C626.449829,448.994690 642.177551,441.715729 659.789368,438.592010 
	C682.417786,434.578491 703.747925,437.923340 723.893982,449.277893 
	C742.822266,459.946167 756.756897,475.080933 765.853943,494.687683 
	C771.047729,505.881714 773.729065,517.668823 774.081604,530.099670 
	C774.553406,546.730957 772.520203,562.850220 764.994080,577.812378 
	C749.519714,608.575623 724.650879,627.825134 690.660706,632.538879 
	C662.407837,636.457031 635.820312,630.102173 613.847229,610.287537 
	C609.074951,605.984009 604.617432,601.310425 600.256165,596.584656 
	C598.939148,595.157532 598.434998,592.980347 597.549683,591.128296 
	C605.799683,587.461792 610.820618,588.089478 616.635376,594.296265 
	C627.255798,605.632568 640.114563,613.088074 655.006958,616.820068 
	C670.932556,620.811035 686.718445,620.776184 702.661865,615.407837 
	C716.373779,610.790955 728.113831,603.531250 738.027344,593.350098 
	C751.342712,579.675354 758.778259,563.182556 761.134094,544.103882 
	C763.698059,523.338928 758.048706,504.699982 746.977905,487.753784 
	C734.786438,469.092133 716.936035,457.935455 695.222107,453.041687 
	C681.792847,450.015076 668.362000,449.658630 654.618530,453.659882 
z"/>
<path fill="#283090" opacity="1.000000" stroke="none" 
	d="
M474.842468,592.074158 
	C469.058838,604.163086 459.092926,611.878906 448.473358,618.617493 
	C438.130737,625.180298 426.761139,629.758301 414.625214,631.955200 
	C399.313477,634.727112 384.141357,633.879456 369.159576,629.580017 
	C344.310730,622.448975 325.784088,607.397461 312.110535,585.563416 
	C299.764832,565.849609 297.010559,544.184631 299.314178,522.012939 
	C301.402252,501.915680 310.182770,484.196442 324.203888,469.190247 
	C336.210327,456.340302 350.110138,446.663116 366.972778,441.489197 
	C391.034790,434.106293 414.687653,435.721069 437.524841,445.968414 
	C451.440094,452.212372 463.157166,461.674438 472.420227,473.921509 
	C473.297760,475.081757 474.064697,477.255585 473.545044,478.280334 
	C473.028870,479.298248 470.860779,479.747162 469.351562,479.944733 
	C463.784119,480.673706 459.324677,479.139160 455.104767,474.862183 
	C439.118439,458.659760 419.430634,451.310852 396.695251,450.892944 
	C372.720123,450.452209 352.617310,459.544250 336.030609,475.810699 
	C321.382660,490.175751 313.252991,508.104187 311.876160,529.074768 
	C310.009888,557.499390 319.951355,580.878296 341.068085,599.365173 
	C354.824646,611.408569 371.273651,617.413452 389.678741,619.249146 
	C405.602661,620.837463 420.456696,618.163208 434.113129,610.689026 
	C442.982880,605.834595 450.789062,598.947937 458.769440,592.592224 
	C463.243073,589.029358 469.891174,588.262085 474.842468,592.074158 
z"/>
<path fill="#283090" opacity="1.000000" stroke="none" 
	d="
M635.000000,582.003174 
	C561.358093,582.002930 488.216125,582.015320 415.074341,581.928528 
	C413.141205,581.926208 409.639709,581.031799 409.545349,580.236206 
	C409.108124,576.547913 409.457550,572.725464 409.970551,569.012634 
	C410.041321,568.500610 412.597839,568.064392 414.008514,568.049133 
	C422.338135,567.959106 430.669250,568.003418 438.999847,568.003296 
	C512.309143,568.002441 585.618469,568.002258 658.927734,567.998047 
	C660.759766,567.997925 662.599670,567.836426 664.421936,567.958191 
	C666.848511,568.120300 671.309326,568.298645 671.354919,568.795166 
	C671.707336,572.633057 671.479492,576.602539 670.747559,580.399414 
	C670.590820,581.212769 667.653931,581.919861 665.987732,581.942444 
	C655.826782,582.080139 645.662903,582.006042 635.000000,582.003174 
z"/>
</svg>