<?xml version="1.0" standalone="no"?>
<!DOCTYPE svg PUBLIC "-//W3C//DTD SVG 20010904//EN"
 "http://www.w3.org/TR/2001/REC-SVG-20010904/DTD/svg10.dtd">
<svg version="1.0" xmlns="http://www.w3.org/2000/svg"
 width="1070.000000pt" height="1070.000000pt" viewBox="0 0 1070.000000 1070.000000"
 preserveAspectRatio="xMidYMid meet">

<g transform="translate(0.000000,1070.000000) scale(0.100000,-0.100000)"
fill="#000000" stroke="none">
<path d="M3745 6989 c-170 -23 -267 -48 -403 -101 -478 -187 -843 -587 -987
-1083 -49 -167 -60 -249 -59 -455 0 -162 4 -214 22 -307 137 -689 670 -1208
1362 -1327 347 -60 695 -2 1030 170 217 111 401 268 559 477 41 54 79 96 85
94 6 -2 30 -31 53 -64 226 -322 630 -589 1013 -668 501 -104 1064 52 1450 401
266 241 440 550 512 914 34 168 33 455 -1 620 -103 498 -398 901 -841 1148
-253 142 -626 221 -904 192 -248 -25 -412 -71 -621 -175 -222 -110 -435 -289
-587 -492 -38 -51 -73 -93 -78 -93 -5 0 -35 35 -66 78 -289 392 -689 622
-1179 677 -158 18 -183 18 -360 -6z m399 -590 c134 -19 281 -81 411 -174 52
-37 140 -121 262 -251 l31 -34 505 0 505 0 63 73 c126 145 265 255 393 312
137 61 219 78 401 82 143 4 185 2 266 -15 190 -39 358 -126 500 -259 102 -97
154 -165 217 -284 95 -179 127 -328 119 -551 -6 -168 -26 -256 -93 -397 -80
-170 -179 -296 -314 -398 -109 -82 -259 -156 -385 -189 -87 -23 -120 -27 -260
-27 -132 0 -175 3 -248 21 -256 64 -454 191 -603 389 -32 43 -65 84 -73 91
-11 9 -124 12 -490 12 -262 0 -481 -4 -487 -8 -6 -4 -30 -34 -54 -67 -60 -84
-203 -222 -280 -273 -237 -156 -541 -207 -830 -141 -299 69 -517 232 -692 519
-29 48 -78 172 -100 254 -19 69 -22 109 -22 261 -1 167 1 187 27 279 52 187
133 329 265 468 245 256 579 362 966 307z"/>
<path d="M3793 6306 c-192 -37 -336 -107 -480 -233 -443 -390 -424 -1100 38
-1464 161 -128 309 -187 516 -208 202 -21 413 29 600 141 66 39 218 179 239
220 l15 28 -56 0 c-54 0 -57 -2 -118 -58 -232 -216 -515 -287 -822 -206 -286
74 -513 297 -601 589 -23 79 -27 108 -28 235 -1 112 3 161 18 215 69 262 232
458 477 574 110 53 182 71 307 78 260 15 461 -60 669 -249 37 -33 49 -38 93
-38 27 0 50 4 50 9 0 4 -17 30 -39 57 -102 129 -295 246 -481 294 -108 28
-295 35 -397 16z"/>
<path d="M6588 6305 c-156 -30 -332 -112 -444 -208 -59 -50 -144 -143 -144
-157 0 -6 22 -10 49 -10 46 0 55 5 112 53 127 108 210 157 334 199 74 26 111
32 210 36 274 10 493 -75 676 -265 169 -174 250 -397 235 -643 -7 -123 -16
-165 -57 -271 -81 -211 -264 -395 -473 -479 -124 -50 -199 -64 -331 -63 -233
2 -422 76 -590 233 -63 58 -66 60 -120 60 -35 0 -55 -4 -55 -12 0 -25 186
-194 265 -241 251 -149 550 -181 818 -88 401 139 666 533 644 956 -15 274
-133 510 -347 693 -90 76 -257 163 -375 193 -106 27 -301 34 -407 14z"/>
<path d="M4094 5617 c-2 -7 -3 -111 -2 -232 l3 -220 1300 0 1300 0 3 219 c2
153 -1 223 -9 232 -16 20 -2587 21 -2595 1z"/>
<path d="M4098 5009 c-5 -3 -8 -26 -6 -50 l3 -44 1289 -3 c971 -1 1292 1 1303
10 9 7 13 26 11 52 l-3 41 -1293 0 c-712 0 -1298 -3 -1304 -6z"/>
</g>
</svg>
