<?xml version="1.0" standalone="no"?>
<!DOCTYPE svg PUBLIC "-//W3C//DTD SVG 20010904//EN"
 "http://www.w3.org/TR/2001/REC-SVG-20010904/DTD/svg10.dtd">
<svg version="1.0" xmlns="http://www.w3.org/2000/svg"
 width="1070.000000pt" height="1070.000000pt" viewBox="0 0 1070.000000 1070.000000"
 preserveAspectRatio="xMidYMid meet">

<g transform="translate(0.000000,1070.000000) scale(0.100000,-0.100000)"
fill="#000000" stroke="none">
<path d="M3730 9239 c-224 -30 -370 -74 -546 -162 -532 -267 -876 -798 -911
-1407 -18 -333 100 -733 302 -1015 272 -381 672 -624 1135 -690 303 -43 649
14 941 154 236 113 486 330 638 554 18 26 38 46 44 44 7 -2 29 -28 50 -58 152
-217 385 -415 645 -546 204 -103 395 -151 632 -160 175 -6 296 8 491 56 523
130 946 509 1133 1017 223 605 81 1273 -369 1730 -138 140 -261 231 -421 312
-207 105 -362 151 -604 179 -170 19 -315 10 -510 -33 -387 -86 -746 -320 -970
-632 -36 -50 -72 -91 -80 -91 -8 0 -34 28 -57 62 -261 384 -694 637 -1185 692
-161 18 -186 18 -358 -6z m385 -579 c226 -32 456 -168 632 -372 l74 -88 511 0
510 0 26 32 c69 83 184 196 248 243 180 135 371 194 625 195 557 1 1006 -406
1061 -963 31 -318 -78 -628 -301 -854 -263 -267 -625 -373 -1003 -293 -255 54
-489 213 -639 433 -28 40 -46 57 -62 57 -216 4 -952 -2 -957 -7 -3 -5 -32 -43
-64 -85 -139 -186 -328 -320 -541 -384 -79 -24 -111 -27 -268 -32 -184 -4
-244 2 -363 38 -340 103 -626 401 -714 744 -93 366 1 742 253 1013 122 131
275 227 451 284 139 44 362 61 521 39z"/>
<path d="M3780 8560 c-72 -11 -198 -54 -274 -92 -237 -120 -416 -331 -492
-583 -26 -84 -28 -103 -28 -270 0 -168 2 -186 27 -268 109 -353 378 -598 737
-673 106 -22 140 -25 225 -20 182 11 349 67 504 170 70 47 228 203 216 214
-11 12 -80 10 -105 -3 -14 -8 -43 -32 -65 -55 -73 -76 -242 -177 -337 -200
-24 -6 -61 -16 -83 -22 -22 -6 -96 -10 -165 -10 -313 2 -568 139 -734 392
-122 188 -165 416 -121 649 60 316 316 582 640 667 104 27 322 25 430 -4 145
-40 256 -101 373 -206 58 -52 66 -56 113 -56 48 0 49 1 38 23 -21 39 -151 157
-226 203 -87 55 -211 108 -301 130 -78 19 -292 27 -372 14z"/>
<path d="M6565 8556 c-163 -31 -328 -110 -455 -219 -43 -37 -120 -125 -120
-138 0 -5 20 -9 45 -9 41 0 52 6 139 80 102 85 232 155 341 185 148 40 349 28
526 -31 257 -85 475 -331 539 -609 20 -84 22 -114 17 -238 -4 -108 -10 -159
-27 -212 -59 -187 -154 -323 -305 -440 -295 -228 -712 -239 -1021 -27 -33 22
-77 59 -99 82 -22 23 -52 48 -67 56 -31 16 -94 19 -103 4 -10 -16 153 -173
231 -223 282 -182 603 -212 903 -85 226 95 379 240 486 462 85 176 116 345 95
526 -43 388 -332 719 -716 821 -100 27 -307 34 -409 15z"/>
<path d="M4078 7873 c-2 -5 -2 -108 0 -229 l3 -222 32 -3 c18 -2 601 -2 1297
1 l1265 5 3 205 c1 113 0 215 -3 228 l-5 22 -1295 0 c-711 0 -1295 -3 -1297
-7z"/>
<path d="M4080 7220 l0 -50 1298 2 1297 3 0 45 0 45 -1297 3 -1298 2 0 -50z"/>
<path d="M2410 5779 c-193 -28 -325 -158 -374 -369 -43 -181 4 -401 110 -519
82 -91 203 -137 342 -129 98 6 176 36 233 89 18 16 37 28 44 25 7 -2 18 -25
25 -50 14 -50 31 -61 86 -54 l29 3 0 260 0 260 -215 0 -215 0 0 -80 0 -80 92
-5 c51 -3 97 -10 104 -17 6 -6 8 -23 5 -40 -19 -87 -96 -138 -197 -131 -82 6
-134 43 -174 123 -27 54 -30 71 -34 176 -7 247 62 359 222 359 86 0 122 -24
162 -108 l30 -64 70 7 c126 11 145 16 145 36 0 43 -44 132 -92 184 -52 58
-142 109 -208 119 -77 11 -138 13 -190 5z"/>
<path d="M4905 5780 c-96 -13 -170 -46 -224 -100 -68 -68 -86 -109 -86 -200 0
-175 92 -247 410 -320 102 -24 152 -52 160 -92 20 -87 -97 -151 -236 -129 -78
13 -112 33 -150 87 -24 36 -36 45 -53 41 -11 -3 -58 -13 -103 -23 -46 -9 -83
-21 -83 -26 0 -24 33 -82 70 -122 90 -97 224 -142 400 -133 127 6 202 30 279
89 137 105 160 294 51 412 -54 59 -102 79 -298 129 -98 25 -181 52 -192 62
-29 26 -27 95 3 123 34 32 114 46 184 32 48 -10 66 -20 100 -56 24 -24 51 -44
60 -44 34 0 165 44 170 56 13 34 -87 142 -161 174 -45 20 -182 51 -218 49 -13
-1 -50 -5 -83 -9z"/>
<path d="M7895 5779 c-132 -12 -255 -91 -318 -204 -60 -107 -71 -151 -71 -290
0 -140 10 -187 64 -295 76 -151 213 -230 396 -230 172 0 315 85 386 232 52
106 63 155 62 278 0 97 -4 128 -27 197 -78 234 -239 336 -492 312z m153 -193
c63 -33 95 -92 112 -214 19 -129 -8 -300 -60 -371 -56 -80 -199 -82 -272 -5
-39 42 -56 89 -68 192 -21 171 21 338 99 390 40 26 145 31 189 8z"/>
<path d="M3403 5758 c-5 -7 -49 -128 -97 -268 -49 -140 -121 -349 -161 -465
-40 -115 -75 -219 -77 -230 -3 -18 3 -20 67 -23 128 -6 128 -6 166 106 l34 97
184 0 185 0 28 -90 c15 -49 35 -95 45 -102 20 -15 229 -18 238 -3 3 5 -19 80
-48 167 -30 87 -103 302 -162 478 -59 176 -112 326 -118 333 -7 8 -48 12 -142
12 -94 0 -135 -4 -142 -12z m186 -430 c28 -86 51 -159 51 -162 0 -3 -54 -6
-120 -6 -66 0 -120 4 -120 8 0 4 13 48 29 97 16 50 34 109 40 132 6 23 18 58
27 79 22 53 33 36 93 -148z"/>
<path d="M4157 5764 c-4 -4 -7 -227 -7 -495 l0 -489 23 -5 c12 -3 65 -5 117
-3 l95 3 0 495 0 495 -111 3 c-60 1 -113 -1 -117 -4z"/>
<path d="M5834 5762 c-6 -4 -64 -160 -129 -347 -64 -187 -139 -403 -166 -479
-28 -76 -48 -145 -45 -153 7 -18 179 -19 194 0 6 7 22 49 36 92 14 44 30 86
34 93 7 9 51 12 188 10 l179 -3 33 -95 c18 -52 38 -98 45 -102 14 -9 231 -11
239 -2 5 5 -313 961 -327 985 -7 11 -265 12 -281 1z m173 -413 c28 -84 52
-162 52 -171 1 -16 -11 -18 -112 -18 -63 0 -116 3 -120 6 -3 3 -2 16 3 27 4
12 29 89 55 170 28 86 52 146 59 144 6 -2 34 -73 63 -158z"/>
<path d="M6570 5275 l0 -495 23 -5 c12 -3 52 -5 87 -3 l65 3 3 325 c1 178 6
328 11 333 6 6 19 -7 33 -29 14 -22 52 -82 85 -134 33 -52 89 -141 124 -197
160 -256 179 -283 205 -294 15 -5 61 -8 103 -7 l76 3 0 495 0 495 -85 0 -85 0
-3 -287 c-1 -162 -6 -288 -11 -288 -5 0 -51 68 -103 151 -51 84 -107 175 -125
203 -18 28 -51 83 -74 121 -67 112 -54 105 -201 105 l-128 0 0 -495z"/>
<path d="M2545 4705 c-240 -45 -435 -181 -523 -365 -54 -113 -77 -226 -69
-345 22 -324 204 -542 522 -625 102 -26 316 -37 442 -21 154 19 370 81 414
118 14 12 17 43 20 199 5 211 6 214 86 214 36 0 43 3 43 19 0 11 -9 21 -22 24
-19 4 -544 2 -571 -2 -5 0 -7 -11 -5 -23 2 -19 10 -23 43 -26 131 -8 137 -19
128 -214 -3 -73 -11 -147 -18 -164 -38 -94 -314 -114 -482 -35 -175 83 -306
374 -290 646 14 234 151 458 324 526 83 33 251 33 338 -1 155 -59 280 -188
330 -341 19 -55 49 -74 72 -43 16 22 16 9 -2 229 -8 99 -15 186 -15 193 0 21
-19 13 -49 -20 l-29 -33 -54 24 c-78 34 -133 50 -223 67 -98 17 -315 17 -410
-1z"/>
<path d="M7027 4663 c-12 -3 -17 -12 -15 -26 3 -20 10 -22 87 -27 133 -9 122
48 119 -610 -3 -655 8 -598 -122 -602 l-81 -3 0 -30 0 -30 415 3 c540 4 687
13 802 53 101 34 145 58 225 120 109 85 202 217 237 338 20 69 20 206 0 291
-70 297 -319 482 -703 520 -100 10 -927 12 -964 3z m863 -63 c30 -7 88 -27
129 -46 222 -102 343 -306 343 -581 0 -101 -14 -160 -63 -260 -98 -204 -290
-313 -552 -313 -93 0 -113 3 -137 20 -59 42 -60 50 -60 618 0 560 -1 549 54
573 26 12 213 4 286 -11z"/>
<path d="M5194 4429 c-10 -12 -32 -28 -47 -36 -29 -15 -39 -33 -110 -203 -226
-545 -234 -560 -298 -560 -32 0 -47 -15 -23 -24 25 -10 294 -7 294 3 0 5 -20
14 -45 20 -25 6 -48 18 -52 27 -6 17 64 221 81 232 9 5 133 7 254 2 7 0 15 -8
19 -17 3 -10 17 -42 30 -71 31 -69 48 -135 40 -154 -3 -9 -22 -18 -41 -22 -76
-14 -29 -23 155 -30 206 -8 246 -1 170 30 -79 31 -65 2 -343 719 -43 113 -51
120 -84 84z m-18 -314 c24 -61 45 -123 46 -140 l3 -30 -99 -3 c-55 -1 -103 1
-108 6 -7 7 16 79 83 260 5 13 14 22 20 20 6 -2 31 -53 55 -113z"/>
<path d="M3731 4431 c-76 -4 -116 -10 -118 -18 -3 -7 8 -15 24 -18 15 -4 38
-10 51 -15 l22 -10 0 -345 c0 -334 -1 -346 -20 -363 -11 -9 -35 -22 -52 -28
-39 -13 -46 -29 -16 -38 32 -8 349 -6 371 3 16 6 16 9 5 18 -7 6 -24 14 -38
18 -57 17 -60 26 -60 181 0 131 2 144 19 154 27 14 47 13 85 -5 25 -12 46 -40
91 -120 98 -175 171 -240 292 -260 43 -7 153 10 153 24 0 4 -16 13 -35 20 -78
28 -195 165 -260 305 -32 69 -29 79 34 114 62 35 91 84 91 155 0 112 -67 179
-212 211 -76 17 -271 24 -427 17z m312 -47 c54 -18 101 -67 116 -121 14 -48
14 -74 0 -129 -20 -77 -113 -134 -197 -120 -62 10 -63 12 -60 195 3 165 3 165
28 178 33 17 57 16 113 -3z"/>
<path d="M5891 4431 c-12 -8 -10 -12 10 -20 13 -5 36 -12 51 -15 15 -4 36 -18
45 -33 16 -24 18 -58 18 -344 0 -305 -1 -319 -21 -345 -11 -16 -37 -32 -60
-39 -23 -6 -39 -17 -39 -25 0 -13 27 -15 165 -15 139 0 165 2 165 15 0 9 -15
17 -45 22 -30 5 -53 16 -67 33 -23 26 -23 30 -23 301 0 244 2 274 16 274 20 0
26 -7 294 -305 299 -335 322 -357 357 -353 l28 3 6 370 c3 204 9 379 14 390
15 37 38 55 77 61 41 7 61 23 31 25 -29 2 -89 2 -221 0 -94 -1 -123 -4 -120
-13 3 -7 28 -18 58 -25 29 -6 57 -16 64 -23 7 -7 12 -91 14 -256 3 -210 1
-244 -11 -237 -8 4 -54 51 -103 103 -49 53 -138 149 -199 214 -60 65 -130 147
-154 182 l-45 64 -145 0 c-80 0 -153 -4 -160 -9z"/>
<path d="M3570 3485 c0 -13 192 -15 1670 -15 1478 0 1670 2 1670 15 0 13 -192
15 -1670 15 -1478 0 -1670 -2 -1670 -15z"/>
<path d="M5306 3139 c-13 -30 -61 -137 -106 -239 -46 -102 -93 -207 -105 -235
-46 -103 -63 -141 -84 -188 -42 -99 -90 -165 -126 -179 -19 -6 -35 -16 -35
-20 0 -4 66 -8 148 -7 l147 0 -54 19 c-29 10 -58 24 -63 32 -14 21 -3 88 25
151 l26 57 167 -2 167 -3 34 -78 c39 -92 43 -142 13 -152 -11 -3 -33 -7 -50
-7 -16 -1 -30 -5 -30 -10 0 -4 98 -8 218 -8 l217 1 -38 20 c-20 11 -48 36 -62
57 -21 32 -354 783 -355 800 0 4 -7 15 -15 26 -13 17 -16 15 -39 -35z m13
-398 c33 -76 61 -146 61 -155 0 -14 -18 -16 -135 -16 -108 0 -135 3 -135 14 0
7 20 58 44 112 24 55 53 121 64 147 12 27 26 46 31 43 5 -3 36 -68 70 -145z"/>
<path d="M7240 3162 c-15 -32 -206 -459 -260 -582 -96 -216 -119 -254 -171
-281 -21 -10 -39 -22 -39 -24 0 -3 66 -5 146 -5 94 0 143 4 139 10 -3 6 -20
10 -36 10 -19 0 -39 10 -55 26 -31 30 -28 64 13 157 l26 57 162 0 c118 0 165
-3 172 -12 21 -27 63 -150 63 -182 0 -37 -13 -47 -70 -48 -16 -1 -30 -5 -30
-10 0 -4 97 -8 217 -8 119 0 214 3 210 6 -3 3 -20 13 -39 22 -37 19 -83 102
-177 323 -30 68 -66 151 -81 184 -15 33 -58 131 -95 218 -37 86 -71 159 -75
162 -4 2 -13 -8 -20 -23z m0 -417 c32 -72 60 -139 62 -150 3 -19 -3 -20 -134
-23 -76 -1 -138 1 -138 5 0 4 28 74 62 155 40 94 68 147 76 145 7 -1 40 -61
72 -132z"/>
<path d="M3110 3171 c0 -5 18 -11 39 -15 26 -4 47 -15 61 -33 20 -26 21 -33
18 -411 l-3 -384 -24 -19 c-13 -10 -38 -19 -57 -19 -18 0 -36 -4 -39 -10 -4
-7 74 -10 227 -10 154 0 228 4 218 10 -8 5 -27 10 -41 10 -15 0 -37 9 -50 19
-24 19 -24 22 -24 193 l0 173 117 12 c135 13 189 33 249 96 27 29 42 55 50 92
33 150 -52 259 -228 290 -87 16 -513 21 -513 6z m468 -68 c51 -38 67 -79 66
-173 -1 -128 -37 -181 -138 -202 -48 -11 -59 -10 -66 2 -11 18 -13 383 -2 394
14 15 112 0 140 -21z"/>
<path d="M3950 3169 c0 -5 14 -9 31 -9 21 0 40 -10 60 -30 l30 -29 -3 -387 -3
-386 -24 -19 c-14 -11 -39 -19 -62 -19 -21 0 -39 -4 -39 -10 0 -6 140 -10 400
-10 l400 0 4 23 c5 21 23 181 28 242 4 55 -13 41 -43 -36 -20 -51 -43 -90 -73
-121 -52 -55 -99 -68 -241 -68 -146 0 -135 -35 -135 414 0 206 3 382 6 391 9
22 57 45 94 45 16 0 30 5 30 10 0 7 -79 10 -230 10 -135 -1 -230 -5 -230 -11z"/>
<path d="M5959 3178 c-5 -8 -23 -250 -20 -254 2 -2 14 22 27 52 47 116 113
152 293 161 83 4 120 3 125 -5 7 -11 -4 -33 -83 -157 -20 -33 -88 -141 -150
-240 -61 -99 -117 -189 -124 -199 -119 -190 -149 -239 -153 -251 -5 -13 46
-15 403 -15 l410 0 16 138 c20 158 21 186 7 177 -5 -3 -10 -14 -10 -23 0 -33
-49 -121 -90 -162 -71 -71 -110 -82 -302 -88 -116 -3 -168 -1 -168 6 0 6 13
33 28 59 27 45 337 545 387 623 85 135 105 167 105 173 0 6 -698 11 -701 5z"/>
<path d="M5201 2070 c-136 -29 -239 -151 -249 -295 -8 -127 53 -230 168 -284
47 -22 68 -26 150 -26 78 1 102 5 135 22 51 28 95 69 95 90 0 13 -8 9 -32 -14
-47 -44 -93 -65 -157 -70 -45 -4 -65 0 -100 19 -25 13 -53 34 -63 48 -28 38
-48 126 -48 211 0 137 38 215 124 255 102 48 215 1 261 -108 8 -21 17 -38 18
-38 2 0 4 43 5 95 1 57 -2 95 -8 95 -6 0 -10 -6 -10 -14 0 -25 -33 -27 -91 -7
-70 25 -142 32 -198 21z"/>
<path d="M4560 2029 c-12 -23 -28 -58 -35 -78 -8 -20 -52 -121 -99 -226 -68
-150 -93 -197 -122 -222 l-37 -33 94 1 c52 0 87 3 79 6 -65 21 -74 47 -44 122
l16 40 86 3 c135 5 134 5 160 -58 30 -75 29 -91 -10 -103 -25 -7 3 -9 107 -10
132 0 138 1 111 15 -32 18 -69 91 -201 399 -42 99 -79 182 -80 183 -2 2 -13
-15 -25 -39z m10 -245 c57 -122 58 -120 -47 -115 -49 1 -89 4 -90 5 -6 5 81
196 89 196 5 0 26 -39 48 -86z"/>
<path d="M6361 1929 c-167 -376 -188 -417 -222 -435 -16 -8 -29 -17 -29 -19 0
-3 42 -5 93 -5 88 1 91 1 59 15 -43 19 -49 38 -27 101 l18 53 99 3 c55 2 107
0 116 -3 20 -8 55 -98 50 -131 -2 -16 -12 -25 -33 -29 -16 -4 32 -7 109 -8
l139 -1 -28 22 c-31 24 -71 104 -190 383 -42 99 -80 184 -84 188 -4 4 -36 -56
-70 -134z m51 -138 c60 -132 64 -121 -41 -121 -50 0 -91 4 -91 9 0 9 65 164
76 182 11 19 21 6 56 -70z"/>
<path d="M3470 2047 l25 -13 3 -244 c1 -135 0 -255 -3 -268 -3 -14 -19 -29
-38 -37 -30 -13 -27 -14 63 -14 73 0 89 3 70 10 -61 24 -60 21 -60 276 0 128
4 233 9 233 4 0 34 -60 66 -132 58 -135 105 -243 145 -333 l22 -50 14 30 c30
64 194 458 194 465 0 4 7 13 15 20 13 11 15 -16 15 -231 0 -134 -4 -250 -9
-257 -4 -7 -21 -17 -37 -22 -19 -5 20 -8 121 -8 86 0 137 3 119 7 -56 14 -54
4 -54 285 0 276 0 278 45 289 11 2 -30 5 -90 6 l-111 1 -16 -42 c-63 -163
-138 -333 -148 -333 -6 0 -25 32 -41 70 -17 39 -39 88 -49 110 -9 22 -32 75
-50 118 l-32 77 -106 0 c-93 0 -104 -2 -82 -13z"/>
<path d="M5600 1988 l0 -73 19 42 c25 55 61 77 125 78 l51 0 3 -231 c3 -279
-1 -305 -48 -321 -30 -10 -13 -12 115 -11 83 1 138 3 124 5 -58 9 -60 15 -57
299 l3 259 37 3 c66 6 138 -48 138 -101 0 -9 5 -19 10 -22 6 -4 10 22 10 69
l0 76 -265 0 -265 0 0 -72z"/>
<path d="M6795 2050 c11 -4 30 -19 43 -33 23 -25 23 -26 20 -259 -3 -256 -4
-260 -62 -277 -23 -7 -4 -9 74 -9 58 1 93 3 78 5 -15 2 -37 16 -48 30 -19 24
-20 40 -20 234 0 115 4 209 9 209 4 0 30 -28 57 -62 42 -55 108 -136 176 -216
10 -13 51 -64 90 -113 38 -49 74 -89 79 -89 5 0 9 116 9 264 0 145 3 272 6
281 4 10 21 23 38 31 29 12 26 13 -54 13 -75 1 -82 -1 -60 -12 42 -21 50 -51
50 -199 0 -75 -4 -139 -9 -142 -5 -3 -73 75 -152 174 l-142 180 -101 -1 c-63
0 -94 -3 -81 -9z"/>
</g>
</svg>
